<svg data-name="Layer 1" xmlns="http://www.w3.org/2000/svg" viewBox="0 0 768 170.25" style="width:100%"><path d="M38.24 76.15c-5.82 1-11.61 2.53-17.47 2.91-8.46.55-15.38-3.12-20.77-9.62v-3.73c5.79-2 11.59-3.27 17.68-1a6.17 6.17 0 003.6-.28c20.53-6.28 39.31-15.89 55.08-30.48 6.21-5.75 11-13 16.56-19.48a111.52 111.52 0 018.8-9.13 7.39 7.39 0 019.61 0c2.44 2.27 2.75 5.46.22 8.68-7.66 9.77-15.09 19.75-23.41 28.93C83.19 48.37 76.7 52.42 71 57.21a27.43 27.43 0 00-4.15 4.59c-1.57 2.08-3 4.28-4.34 6.49-6.85 11.07-14.2 21.88-20.36 33.32-8.29 15.41-15.74 31.28-23.36 47-1.6 3.32-2.43 7-3.49 10.58-.92 3.08-5.26 6.16-8.38 5.71a2.1 2.1 0 01-1.48-.82c-1.87-4.53-4.25-8.79-2.56-14.2 6-19.11 15.56-36.51 24.93-54 3.51-6.56 7-13.14 10.45-19.71a.85.85 0 00.25-.13v-.19zM768 145.61c-1 4.79-2.29 9.55-2.85 14.4-.32 2.79-1.28 3.46-3.9 3.58-7.64.36-9.21-1.83-10.21-5.27-.6-2.06-.07-4.43-.16-6.66-.1-2.86-.31-5.72-.47-8.59a59.47 59.47 0 00-7.71 1.74c-10.68 3.94-20.84 8.86-29.88 15.91-3.26 2.55-8.56 1.88-12.11-2.13-3-3.36-5-7.59-7.27-11.55-.45-.8-.18-2.17.09-3.19 2.08-7.66 4.1-15.34 6.46-22.91.68-2.15 2-5.06 3.8-5.69 3.28-1.17 5.72 1.39 7.59 4.09a12.24 12.24 0 012 10.9c-1.29 4.61-2 9.36-3.22 14.9 5.44-3.22 10-6.27 14.93-8.77 7.75-4 15.46-8.2 23.61-11.11 8.66-3.09 14.33-2.18 19.3 4.67zM316.62 94c-1.28 5.25-2.49 10.51-3.87 15.73-1.76 6.69-3.78 13.32-5.45 20-.56 2.24-.23 4.68-.58 7-.69 4.5-1 9.17-2.48 13.41-3.29 9.28-5.54 8.52-13.46 7.19a7.78 7.78 0 01-3.77-1.51c-.88-.78-1.84-2.43-1.59-3.38 7-26 14.22-51.87 21.22-77.83 3.65-13.52 7-27.12 10.35-40.7a18.29 18.29 0 00.25-4.45c0-6.17 2.18-8.62 8.4-9.31s10.72 1.81 11.07 6.18a44.17 44.17 0 010 7.09c-.37 4.42-1.1 8.82-1.39 13.24-.4 6.3-.48 12.63-.8 18.94q-1.08 21.31-2.29 42.63c-.15 2.59-.54 5.17-.83 7.76l1.35.23c.84-3.12 1.7-6.24 2.52-9.36 7.34-27.8 14.19-55.74 22.34-83.3 2.22-7.53 8.29-13.95 12.74-20.78 1.5-2.31 3.81-2.75 6.22-1.27 2.59 1.59 4.64 3.57 3.46 7-1.83 5.28-3.67 10.55-5.66 15.78s-4.43 10.54-6.3 15.93c-1.12 3.24-1 7-2.35 10-5.31 12.05-6.13 25.15-9.42 37.67-5.48 20.83-10.53 41.78-15.89 62.65a52.36 52.36 0 01-3.46 8.63c-2.49 5.37-6.62 7-12.22 5.14a16.41 16.41 0 01-11.11-16.08c.36-11.48 1.32-23 2.1-34.42.45-6.59 1-13.17 1.55-19.76zm-158.37 44.54c4.91-3.39 9.45-6.85 14.3-9.78 6.54-3.95 13.32-7.5 20-11.19a2.69 2.69 0 011.44-.22c8 .45 15.22 7.64 16.05 15.67.75 7.22 2.3 14.39 2.59 21.62.11 2.59-1.93 5.73-3.87 7.81s-4.69.89-7.06-.76c-5.83-4-8.71-9.46-8.17-16.48.29-3.76-.61-6.81-4.44-9.48-7.68 4.88-16.23 9.22-23.45 15.17-11.25 9.27-21.06 2.15-25.56-7.24-.63-1.3-1.16-2.66-1.89-4.32a40.82 40.82 0 00-13.54 11.29c-3 3.64-5.63 7.56-8.4 11.38-1.34 1.83-7.43 4.22-9.3 2.79a11.68 11.68 0 01-4.06-6.49c-1.37-7 1.75-12.66 6.65-17.58 4-4.05 7.66-8.52 11.83-12.43 5.92-5.57 13.29-8 21.32-8.87 3.65-.38 5.9 1.19 7.51 4.22 2.56 4.8 5.18 9.57 8.05 14.89zm374.11.66c-7.31 3.89-12.49 10.08-17.57 16.37a17.14 17.14 0 00-3 4.27c-1.55 4.05-4.95 4.7-8.55 5.14-3.27.4-6.59-2.78-6.71-6.93-.15-4.79 0-9.55 3.78-13.4 5.64-5.76 10.9-11.9 16.66-17.52 5.92-5.78 13.89-7 21.64-8.18 1.28-.19 3.41 1.49 4.26 2.86 2.87 4.63 5.34 9.51 8 14.28.36.64.81 1.22 1.54 2.29 4.76-3.07 9.34-6.19 14.08-9 6.48-3.89 13.06-7.6 19.64-11.31a4.5 4.5 0 012.77-.55c9.16 1.61 15.13 8.87 15.69 18.17a172.69 172.69 0 002.29 18.67c.65 3.85-1.49 6.2-3.83 8.25s-4.89 1-7.17-.75c-5.6-4.2-9.06-9.48-8.65-16.76a26.75 26.75 0 000-3.35c-.3-4.43-3-6.15-6.69-3.95-7.28 4.31-14.76 8.42-21.48 13.5-10.28 7.79-16.81 3.47-22.52-3.83-1.77-2.32-2.69-5.26-4.18-8.27zm133.34-4.73c12.75 6.45 14.84 17.51 14.62 29.78-.06 3.33-1.65 4.5-4.52 4.51-6.36 0-10.75-3.31-14-8.43a43.54 43.54 0 01-2-4.26c-4.17 2.31-8.59 4.1-12.17 6.92-4.38 3.46-8.62 3.6-13.11 1.18a47 47 0 01-8.56-5.9c-4-3.54-3.87-7.82-.16-11.84 7-7.58 13.81-15.31 20.87-22.83a58.46 58.46 0 018.14-7.08c4.64-3.38 12-1.88 15.31 2.85 5.95 8.63 5.88 8.83-4.42 15.1zm-6.23 8.53c-1.29-1.67-2.53-3.26-4.1-5.27-4.44 3.71-8.57 7-12.52 10.58-.89.8-1.13 2.33-1.67 3.52l.93.33zm-567.16-9.24c.26 11.92-5.16 19.32-14.5 24.24-4.63 2.43-9.25 4.95-14.09 6.93-9.48 3.88-16.22 1.68-19.92-7.73a95.14 95.14 0 01-4.31-12.28c-1.54-6.33.48-12.08 4.64-16.9 4.77-5.52 10.32-10.17 18-10.7 4.5-.31 7.15 2.37 7.6 6.85.18 1.71.72 3.47.44 5.09a3.64 3.64 0 01-2.65 2.08c-7 .77-11.57 6.48-10.56 13.52.35 2.46 1.33 3.37 4 2.58C72.81 144 80.62 134.23 81 122c.06-2 0-4.16 2.41-4.28a5.71 5.71 0 014.16 2.16c3.16 4.39 5.43 9.2 4.74 13.88zm403.41-5.27c0 3.92.13 7.18-.07 10.42a5.14 5.14 0 01-1.46 3.15c-7.55 7.22-15.23 14.29-22.79 21.49-3.68 3.5-5.85 3.25-8.47-1.08a38.67 38.67 0 00-4.48-6.38c-4.07-4.39-9.37-3.54-14.32-2.36-6.63 1.59-13.07 4-19.69 5.69-7.72 1.95-12.08-2.43-10.05-10 2.85-10.59 8.77-19.71 14.92-28.58 1.14-1.64 4.72-2.61 6.9-2.26 2.41.39 3.18 3.1 3.41 5.91.51 6-3.14 10-5.93 14.47-.61 1-1.24 1.92-1.87 2.88.19.27.38.53.56.8 1.5-.32 3-.68 4.49-1 6.45-1.19 12.89-2.39 19.35-3.52 4.21-.74 7.19 1 9.31 4.63.86 1.47 2 2.8 3.39 4.76 4.51-3.77 8.66-7.68 13.27-10.94 4.31-3.01 7.21-8.81 13.53-8.08zm-110.16 21.3c2.2.1 4.09-.15 5.74.36 1.87.58 3.53 1.85 5.28 2.82-1.14 1.62-2 3.65-3.5 4.77a19.72 19.72 0 01-7.33 3.61c-3.54.73-7.63 1.59-10.83.5a84.23 84.23 0 01-16.62-8.28c-7-4.31-9.92-19.72-2-26.36s16.05-11.81 26.7-11.38a33.57 33.57 0 018.4 1.57c10.08 3.08 12.15 15.84 5.46 22.34-3.41 3.35-7.16 6.4-11.3 10.05zm-2.42-17.53c-1.19-.61-2.36-1.74-3.12-1.5-3.72 1.14-7.62 2.18-10.9 4.17-3.1 1.88-2.79 4.05-.58 6.86s4.43 2.55 6.77.15c2.06-2.12 4.25-4.12 6.25-6.28.62-.66.83-1.73 1.58-3.4z" class="main-logo_svg__cls-2"/><path d="M38.24 76.15l.31-.3v.19a.85.85 0 01-.25.13z" class="main-logo_svg__cls-1"/></svg>