<svg version="1.1" id="Layer_1" xmlns="http://www.w3.org/2000/svg" xmlns:xlink="http://www.w3.org/1999/xlink" x="0px" y="0px" viewBox="0 0 512 508.3" style="enable-background:new 0 0 512 508.3;" xml:space="preserve">
  <path d="M21.94,200.5c1.89-1.9,3.73-2.1,6.92-4,.66-.4,1.67-1,3-1.6l7.8-2h0a118.88,118.88,0,0,1,12.54.12c8.42.76,16.7,3,25.09,4.27a21.55,21.55,0,0,0,8.79-.49c26.32-7.55,52.09-16.7,76.8-28.56,26.67-12.8,52.39-27.33,75.89-45.39,10.15-7.78,20.68-15.16,30.15-23.69,5.77-5.18,9.66-12.41,14.76-18.41,10.41-12.26,20.81-24.56,31.72-36.36,6.52-7,13.95-13.25,21.09-19.69,7.71-7,24.38-5.95,30.21,3.55,1,1.59,3.55,2.72,3.66,4.2.33,4.55,1.63,10.51-.62,13.51-12.54,17-25.85,33.43-39.19,49.82a371.49,371.49,0,0,1-49.94,50.69c-13,10.87-27.43,20.12-41.36,29.89-5.27,3.69-10,7-12.7,13.73s-7.41,13-12.52,18.23c-11.81,12.1-21.16,25.84-29.78,40.25-11.77,19.67-24,39.1-35.61,58.84q-15.19,25.78-29.53,52.05c-10.11,18.48-20.37,36.92-29.35,56C82,431.89,75.85,449.2,69.14,466.2c-1,2.3-1.84,5-1.55,7.31.6,4.94-2.33,7-6,8.27-6.37,2.25-12.87,4.15-19.35,6.09-3.28.95-5.39-.43-6.67-3.56-2.72-6.54-6.36-12.83-8.12-19.61-1.24-4.77-.8-10.34.28-15.28a198.32,198.32,0,0,1,16.71-46.13C58.63,375,72.83,346.62,88,318.83c13.13-24,27.63-47.27,41.49-70.89,3.44-5.84,6.75-11.75,10.55-18.37-1.61.19-2.44.06-3,.39-10.33,6.58-22.2,7.9-33.82,9.55a105.76,105.76,0,0,1-59.12-8.46,63,63,0,0,1-24.41-19.69S21.52,200.92,21.94,200.5Z" transform="translate(-19.75 -20.13)"/>
  <path d="M324.78,488.17c-2.48-.92-4.9-2-7.43-2.65-11.73-3.12-22.44-7.79-29.65-18.28a35,35,0,0,1-6.27-19.64,300.76,300.76,0,0,1,1.12-31.91c1.18-12.31,3.51-24.51,5.11-36.78,1.27-9.58,2.07-19.26,3.3-28.82s2.8-19.41,4.18-29.12a12.1,12.1,0,0,0-.52-2.46c-1.83,4.95-3.25,8.83-4.7,12.71q-14.09,37.72-28.14,75.43a15,15,0,0,0-1.1,6.18c1.43,18.48-4.23,35-14.92,49.66-5.79,8-14.67,10.3-24.19,9-8.75-1.16-17.43-2.75-26.13-4.3a26,26,0,0,1-5.23-1.62c-2.06-.85-3-2-2-4.59,8.49-22.75,16.63-45.63,25.19-68.36q9.32-24.76,19.43-49.14c8.21-19.81,17-39.43,25.22-59.18,12.08-29,25.26-57.6,33-88.19,2-8,2.68-16.32,4.18-24.46.28-1.58,1.21-3.8,2.43-4.33,14.83-6.34,30.06-10.6,46.08-4.85,16.43,5.91,18.22,14.42,14.11,28.33-.78,2.62-1.84,5.16-2.75,7.72,4.46,3.86,1.09,8.46.91,12.56-.34,7.2-2,14.33-2.75,21.52C352,244.81,351.06,257,350,269.21q-.69,8.16-1.18,16.33c-.74,12.43-1.16,24.88-2.21,37.29-1.1,13.24-2.8,26.43-4.22,39.66-.75,6.91-1.5,13.83-2.18,20.75-.06.49.3,1,.91,2.82,1.09-2.54,1.78-3.93,2.31-5.38,9.89-26.94,19.45-54,29.7-80.82,15.08-39.44,31.17-78.51,45.8-118.12,8.63-23.36,25.67-39.43,42.88-55.86,1.43-1.36,3-2.58,4.49-3.88,9.48-8.25,23.78-5,32.84,2.12.8.64,1.68,1.19,2.53,1.78v6.42c-4.9,9.43-9.75,18.89-14.67,28.3-11,20.93-24.88,40.35-31.68,63.47-2.46,8.34-6.49,16.4-13.08,20.92-.46,4.22-.28,7.71-1.29,10.79q-11.25,34.27-23,68.49c-12.44,36.26-22.51,73.37-38.09,108.5-6.42,14.55-14.47,28.43-22.39,42.27-3.93,6.85-10.22,11.12-18.74,11.27-2.54,0-5.07,1.19-7.6,1.84Z" transform="translate(-19.75 -20.13)"/>
</svg>
